<?xml version="1.0" encoding="UTF-8"?>
<svg id="_图层_2" data-name="图层 2" xmlns="http://www.w3.org/2000/svg" viewBox="0 0 300.54 95.19">
  <defs>
    <style>
      .cls-1 {
        fill: #fff;
        stroke-width: 0px;
      }
    </style>
  </defs>
  <g id="_图层_1-2" data-name="图层 1">
    <g>
      <polygon class="cls-1" points="152 59.3 152 56.4 152 55.56 152.84 55.56 161.71 55.56 161.71 53.08 156.93 53.08 155.76 53.08 156.14 51.97 157.27 48.6 154.17 48.6 152.85 52.51 152.66 53.08 152.05 53.08 148.57 53.08 147.97 53.08 147.77 52.51 146.46 48.6 143.36 48.6 144.49 51.97 144.86 53.08 143.69 53.08 138.92 53.08 138.92 55.56 147.85 55.56 148.7 55.56 148.7 56.4 148.7 59.3 148.7 60.14 147.85 60.14 138.92 60.14 138.92 62.62 147.85 62.62 148.7 62.62 148.7 63.46 148.7 70.5 152 70.5 152 63.46 152 62.62 152.84 62.62 161.71 62.62 161.71 60.14 152.84 60.14 152 60.14 152 59.3"/>
      <path class="cls-1" d="M151.96,35.55v-3.26h-3.3v4.11h-17.57v2.64h17.57v4.58h-15.69v27.11h3.14v-24.79h28.5v19.74c.04.76-.12,1.33-.48,1.7-.37.37-.98.56-1.87.56-.09,0-.19,0-.29,0h-3.11v2.48h3.28c.13,0,.26,0,.38,0,1.97,0,3.4-.46,4.25-1.35.74-.78,1.07-1.85.97-3.2v-.03s0-.03,0-.03v-22.18h-15.79v-4.58h17.57v-2.64h-17.57v-.84Z"/>
      <path class="cls-1" d="M199.57,41.54v-.02s0-.02,0-.02v-7.07h-2.81v6.96c.04.57-.05.98-.28,1.23-.22.24-.56.35-1.08.35-.09,0-.19,0-.29-.01h-1.44v-10.34h-2.81v10.34h-3.1v-8.54h-2.81v10.85h10.52c1.49,0,2.59-.37,3.28-1.08.61-.64.89-1.54.84-2.66"/>
      <rect class="cls-1" x="184.77" y="48.22" width="14.79" height="2.32"/>
      <path class="cls-1" d="M179.96,38.82l.12-.35.08-.23c.64-1.87,1.22-3.87,1.72-5.95h-3.01c-.89,3.58-1.94,6.52-3.87,11.5h3.4l-.36,1.1-.11.34c-.8,2.44-1.75,4.96-2.9,7.67h3.42v17.82h3.01v-21.17h-2.04l.42-1.14.13-.35c1.02-2.75,1.85-5.48,2.48-8.14h-2.87l.39-1.12Z"/>
      <path class="cls-1" d="M197.95,67.57v-13.94h-11.87v4.8c.09,1.45-.07,3.91-.41,6.28-.22,1.54-.7,4.3-1.5,6.01h3.09c.53-1.1,1.02-3.36,1.38-6.28.35-2.83.47-5.5.41-6.68v-.02s0-.02,0-.02v-1.78h6.09v14.78h4.94v-2.32h-2.13v-.84Z"/>
      <path class="cls-1" d="M205.31,36.51c.28-1.2.73-3.06,1-4.22h-2.94l-1.93,7.57h8.29l-.04.88c-.04.87-.15,2.52-.47,5.4l-.02.16c-.16,1.67-.63,3.92-1.38,6.5l-.81,2.8-.81-2.79c-.48-1.67-1.01-3.91-1.14-4.57h0s0-.02,0-.02l-.23-1.42v-.04c-.21-1.27-.49-2.97-.6-3.79h-3.03l.15,1.07c.22,1.57.45,3.18.75,4.82h0s0,.02,0,.02c.54,3.46,1.63,6.34,2.78,9.4l.37.97.11.29-.11.29c-1.58,4.26-3.41,8.75-4.12,10.48l-.17.42h2.93c.4-.75,1.87-4.12,2.38-5.27l.76-1.74.78,1.73c1.02,2.27,2.04,4.35,2.5,5.28h2.91c-.62-1.44-2.7-6.33-4.39-10.9l-.11-.29.11-.29c1.77-4.74,2.96-8.57,3.46-13.01.01-.11.3-3.36.38-5.57l.03-.81h1.47v-2.32h-9.11l.24-1.04Z"/>
      <path class="cls-1" d="M222.97,65.45v-28.87h31.69v-2.48h-34.99v30.81s0,.03,0,.03v.03c-.11,1.77.3,3.14,1.21,4.09.98,1.01,2.55,1.53,4.68,1.53.12,0,.24,0,.35,0h.01s0,0,0,0h29.24v-2.48h-29.11c-.11,0-.22,0-.32,0-1.01,0-1.75-.23-2.2-.68-.42-.42-.6-1.07-.56-1.97"/>
      <path class="cls-1" d="M231.2,65.16l8.63-9.39.62-.67.62.67,8.63,9.39h3.66l-8.2-8.92-1.3-1.41h9.39v-2.48h-11.24v-8.31h11.24v-2.48h-21.45l.19-1v-.04c.08-.39.15-.76.21-1.15h-3.14c-.57,3.29-1.4,6.63-2.47,9.94h3.37c.43-1.45.83-2.96,1.21-4.62l.15-.65h7.54v8.31h-11.87v2.48h10.02l-1.3,1.41-8.2,8.92h3.67Z"/>
      <polygon class="cls-1" points="265.95 43.41 265.95 42.57 266.79 42.57 296.57 42.57 297.41 42.57 297.41 43.41 297.41 49.06 300.54 49.06 300.54 40.25 262.81 40.25 262.81 49.06 265.95 49.06 265.95 43.41"/>
      <polygon class="cls-1" points="283.27 37.69 281.98 32.45 278.66 32.45 279.95 37.69 283.27 37.69"/>
      <polygon class="cls-1" points="272.02 37.69 270.73 32.45 267.41 32.45 268.7 37.69 272.02 37.69"/>
      <path class="cls-1" d="M285.14,55.55c2.87-1.56,7.64-5.1,8.93-6.07v-2.79h-24.63v2.32h19.92l-1.98,1.51c-1.61,1.23-5.4,3.76-6.62,4.57v2.05h-17.95v2.48h17.96v5.89c.04.9-.16,1.59-.6,2.03-.48.49-1.26.72-2.38.72-.1,0-.2,0-.3,0h-3.13v2.32h4.28c.12,0,.23,0,.35,0,1.75,0,3.07-.43,3.93-1.29.83-.83,1.22-2.05,1.17-3.62h0v-6.05h16.48v-2.48h-18.32l2.92-1.58Z"/>
      <polygon class="cls-1" points="293.24 32.45 292.2 37.69 295.52 37.69 296.57 32.45 293.24 32.45"/>
      <path class="cls-1" d="M47.07,23.08l-5.6,5.84-8.23-22.7L16.98,0,0,7.09v64.63l17.17,6.6,8.82-6.45,5.64,7.84,12.45-8.22v16.46l16.66,7.23,17.48-8.31v-3.94l5.01,1.39,17.47-9.02V29.17l11.04-4.92V7.04l-14.26-6.21-50.41,22.26ZM60.07,92.85l-14.61-6.32.03-26.49-13.54,15.39-15.51-23.68v23.56l-13.13-5.24.16-61.43,12.44,4.54,15.25,37.07,15.39-23.82,13.52,4.69v61.73ZM83.36,82.27l-4.95-1.76v-41.4l4.95-2.19v45.35Z"/>
    </g>
  </g>
</svg>